<?xml version="1.0" encoding="utf-8"?>
<!-- Generator: Adobe Illustrator 25.2.0, SVG Export Plug-In . SVG Version: 6.00 Build 0)  -->
<svg version="1.1" xmlns="http://www.w3.org/2000/svg" xmlns:xlink="http://www.w3.org/1999/xlink" x="0px" y="0px"
	 viewBox="0 0 29.4 29.2" style="enable-background:new 0 0 29.4 29.2;" xml:space="preserve">
<style type="text/css">
	.st0{fill:#002719;}
	.st1{fill:#FFFFFF;}
</style>
<g id="Lag_1">
</g>
<g id="Isolationstilstand">
	<g>
		<g>
			<path class="st0" d="M29.3,14.6C29.3,6.5,22.8,0,14.7,0C6.6,0,0.1,6.5,0.1,14.6c0,7.3,5.3,13.3,12.3,14.4V18.9H8.7v-4.2h3.7v-3.2
				c0-3.7,2.2-5.7,5.5-5.7c1.6,0,3.3,0.3,3.3,0.3v3.6h-1.8c-1.8,0-2.4,1.1-2.4,2.3v2.7h4.1l-0.6,4.2H17v10.2
				C24,28,29.3,21.9,29.3,14.6z"/>
			<path class="st1" d="M20.4,18.9l0.6-4.2H17v-2.7c0-1.2,0.6-2.3,2.4-2.3h1.8V6c0,0-1.7-0.3-3.3-0.3c-3.3,0-5.5,2-5.5,5.7v3.2H8.7
				v4.2h3.7v10.2c0.7,0.1,1.5,0.2,2.3,0.2c0.8,0,1.5-0.1,2.3-0.2V18.9H20.4z"/>
		</g>
	</g>
</g>
</svg>
