<?xml version="1.0" encoding="utf-8"?>
<!-- Generator: Adobe Illustrator 25.2.0, SVG Export Plug-In . SVG Version: 6.00 Build 0)  -->
<svg version="1.1" xmlns="http://www.w3.org/2000/svg" xmlns:xlink="http://www.w3.org/1999/xlink" x="0px" y="0px"
	 viewBox="0 0 29.4 29.2" style="enable-background:new 0 0 29.4 29.2;" xml:space="preserve">
<style type="text/css">
	.st0{fill:#002719;}
	.st1{fill:#FFFFFF;}
</style>
<g id="Lag_1">
</g>
<g id="Isolationstilstand">
	<g>
		<circle class="st0" cx="14.7" cy="14.6" r="14.6"/>
		<path class="st1" d="M8.6,11.9h2.8V21H8.6V11.9z M10,7.4c0.9,0,1.6,0.7,1.6,1.6c0,0.9-0.7,1.6-1.6,1.6c-0.9,0-1.6-0.7-1.6-1.6
			C8.4,8.1,9.1,7.4,10,7.4"/>
		<path class="st1" d="M13.2,11.9h2.7v1.2h0c0.4-0.7,1.3-1.5,2.7-1.5c2.9,0,3.4,1.9,3.4,4.3v5h-2.8v-4.4c0-1.1,0-2.4-1.5-2.4
			c-1.5,0-1.7,1.1-1.7,2.3V21h-2.8V11.9z"/>
	</g>
</g>
</svg>
