<?xml version="1.0" encoding="utf-8"?>
<!-- Generator: Adobe Illustrator 25.2.0, SVG Export Plug-In . SVG Version: 6.00 Build 0)  -->
<svg version="1.1" xmlns="http://www.w3.org/2000/svg" xmlns:xlink="http://www.w3.org/1999/xlink" x="0px" y="0px"
	 viewBox="0 0 29.4 29.2" style="enable-background:new 0 0 29.4 29.2;" xml:space="preserve">
<style type="text/css">
	.st0{fill:#002719;}
	.st1{fill:#FFFFFF;}
</style>
<g id="Lag_1">
</g>
<g id="Isolationstilstand">
	<g>
		<circle class="st0" cx="14.7" cy="14.6" r="14.6"/>
		<g>
			<g>
				<path class="st1" d="M7.3,9.3l6.1,5.8c0.3,0.3,0.8,0.5,1.4,0.5c0.5,0,1-0.2,1.4-0.5l6-5.7c0,0,0.1-0.1,0.2-0.1
					c-0.3-0.1-0.5-0.1-0.8-0.1H8.1C7.8,9.2,7.6,9.2,7.3,9.3C7.3,9.3,7.3,9.3,7.3,9.3z"/>
				<path class="st1" d="M23.2,10c0,0.1-0.1,0.1-0.1,0.2l-6,5.7c-0.6,0.6-1.4,0.9-2.3,0.9c-0.9,0-1.7-0.3-2.3-0.9L6.4,10
					c0,0,0,0,0,0C6.2,10.3,6,10.6,6,10.9v7.9c0,1,0.9,1.7,2.1,1.7h13.3c1.1,0,2.1-0.8,2.1-1.7v-7.9C23.5,10.6,23.4,10.2,23.2,10z"/>
			</g>
		</g>
	</g>
</g>
</svg>
